# xmcd
#
# Track frame offsets:
#	150
#	25037
#	43585
#	62095
#	71810
#	84910
#	103810
#	121910
#	137280
#	151680
#	171192
#	193125
#	208084
#	229009
#
# Disc length: 3308 seconds
#
# Revision: 0
# Processed by: cddbd v1.5.1PL0 Copyright (c) Steve Scherf et al.
# Submitted via: dBpowerAMP V4.0
#
DISCID=b60cea0e
DTITLE=Ray Kaminsky - Barker Hill Blues
DYEAR=1900
DGENRE=Blues
TTITLE0=Walkin' Blues
TTITLE1=That'll Never Happen No More
TTITLE2=St. Louis Blues
TTITLE3=(Nobody Knows You When You're) Down and Out
TTITLE4=Malted Milk
TTITLE5=Sportin' Life Blues
TTITLE6=Corrina Blues
TTITLE7=Red River Blues
TTITLE8=Black Bat Blues
TTITLE9=Kind Hearted Woman
TTITLE10=Woman Be Wise
TTITLE11=How Long, How Long Blues
TTITLE12=St. James Infirmary
TTITLE13=Will The Circle Be Unbroken
EXTD=
EXTT0=
EXTT1=
EXTT2=
EXTT3=
EXTT4=
EXTT5=
EXTT6=
EXTT7=
EXTT8=
EXTT9=
EXTT10=
EXTT11=
EXTT12=
EXTT13=
PLAYORDER=
